<svg width="50" height="11" viewBox="0 0 50 11" fill="none" xmlns="http://www.w3.org/2000/svg">
<path d="M19.9396 10.5248C19.8663 10.4864 19.7826 10.4969 19.7058 10.4829C19.5523 10.4585 19.4057 10.4201 19.2556 10.3817C18.9974 10.3154 18.7566 10.2107 18.5228 10.0851C18.3379 9.9874 18.1634 9.86875 17.9994 9.73964C17.8633 9.63146 17.7551 9.50235 17.6539 9.36625C17.5981 9.29297 17.6016 9.28599 17.6609 9.21271C17.8633 8.96146 18.0657 8.71021 18.2681 8.45895C18.2925 8.42755 18.3135 8.39265 18.3484 8.37171C18.4321 8.47291 18.5159 8.57062 18.5996 8.67182C18.7462 8.85328 18.9311 8.98937 19.1196 9.12198C19.2487 9.20922 19.3848 9.2825 19.5313 9.33135C19.7896 9.41161 20.0548 9.42557 20.327 9.39417C20.5154 9.37323 20.6968 9.33135 20.8713 9.25109C21.0109 9.18828 21.154 9.12198 21.2657 9.0138C21.3808 8.90562 21.496 8.79396 21.5692 8.65088C21.6704 8.45546 21.7472 8.24958 21.7926 8.02973C21.8519 7.74359 21.8659 7.45046 21.8554 7.14686C21.8065 7.19223 21.7891 7.24806 21.7716 7.29692C21.6809 7.53072 21.5448 7.73312 21.3634 7.90411C21.1296 8.12744 20.8434 8.24609 20.5328 8.30192C20.2502 8.35427 19.964 8.34729 19.6779 8.3089C19.4964 8.28447 19.3219 8.23911 19.1544 8.16234C19.0323 8.10651 18.9206 8.03671 18.816 7.95645C18.7462 7.90411 18.6659 7.86572 18.6136 7.79244C18.5473 7.70171 18.4879 7.604 18.4216 7.51327C18.296 7.34228 18.2472 7.13989 18.1843 6.94098C18.1006 6.6653 18.0901 6.38264 18.0866 6.09999C18.0866 4.90654 18.0866 3.7131 18.0866 2.51966C18.0866 2.50221 18.0866 2.48127 18.0866 2.46382C18.0831 2.41846 18.1076 2.4045 18.146 2.40799C18.1599 2.40799 18.1739 2.40799 18.1913 2.40799C18.5822 2.40799 18.9765 2.40799 19.3673 2.40799C19.4755 2.40799 19.465 2.40101 19.465 2.50919C19.465 3.49675 19.465 4.48779 19.465 5.47535C19.465 5.73358 19.472 5.98832 19.5139 6.23957C19.5488 6.44895 19.6255 6.65483 19.7791 6.80837C19.8593 6.88515 19.9605 6.94447 20.0722 6.98285C20.2537 7.04567 20.4386 7.02473 20.6201 7.01426C20.7597 7.00728 20.9027 6.95494 21.0319 6.89212C21.3215 6.75254 21.5134 6.52223 21.6321 6.23608C21.81 5.80686 21.8589 5.3567 21.8589 4.89607C21.8589 4.10394 21.8589 3.31529 21.8589 2.52315C21.8589 2.39403 21.8414 2.4045 21.974 2.4045C22.3579 2.4045 22.7452 2.4045 23.1291 2.4045C23.15 2.4045 23.1745 2.4045 23.1954 2.4045C23.2268 2.4045 23.2408 2.41846 23.2408 2.44987C23.2408 2.47429 23.2408 2.50221 23.2408 2.52664C23.2408 4.1493 23.2408 5.77196 23.2408 7.39463C23.2408 7.61098 23.2303 7.82734 23.1919 8.0402C23.157 8.23213 23.1186 8.42057 23.0558 8.60552C22.9197 9.01031 22.7173 9.37323 22.4137 9.66985C22.1381 9.94203 21.817 10.1409 21.4506 10.2805C21.2482 10.3573 21.0388 10.4131 20.8295 10.4655C20.7283 10.4899 20.6201 10.4899 20.5154 10.5143H19.9431L19.9396 10.5248Z" fill="#322D3C"/>
<path d="M24.2701 10.5249C24.2561 10.4866 24.2631 10.4447 24.2631 10.4063C24.2631 7.7856 24.2631 5.16491 24.2631 2.54074C24.2631 2.52678 24.2631 2.51282 24.2631 2.49537C24.2631 2.41511 24.2631 2.41162 24.3468 2.41162C24.7482 2.41162 25.1529 2.41162 25.5542 2.41162C25.6345 2.41162 25.638 2.41162 25.638 2.49537C25.638 2.72568 25.638 2.956 25.638 3.18631V3.31543C25.6729 3.27006 25.6973 3.24564 25.7148 3.21772C25.8264 3.06069 25.9521 2.91761 26.1126 2.80595C26.2801 2.6873 26.4546 2.58261 26.6535 2.51631C26.9815 2.40464 27.313 2.39068 27.648 2.43605C27.7946 2.45699 27.9376 2.49537 28.0772 2.54074C28.3983 2.64542 28.674 2.82688 28.9008 3.07464C29.0508 3.24215 29.173 3.42709 29.2707 3.63298C29.344 3.78652 29.3963 3.95053 29.4626 4.10757C29.508 4.21574 29.5219 4.3309 29.5463 4.44257C29.6371 4.85085 29.651 5.2696 29.6336 5.68486C29.6231 5.92216 29.5917 6.15596 29.5394 6.38627C29.501 6.56424 29.4486 6.73872 29.3858 6.90971C29.2742 7.20633 29.1136 7.47503 28.8833 7.70185C28.7751 7.80654 28.667 7.90425 28.5413 7.98451C28.3285 8.12409 28.0947 8.21831 27.8469 8.27066C27.6096 8.31951 27.3723 8.33696 27.1281 8.323C26.9431 8.31253 26.7686 8.27066 26.5976 8.21133C26.3952 8.14154 26.2138 8.02639 26.0393 7.90076C25.8823 7.78909 25.7741 7.63904 25.6554 7.48201C25.631 7.52388 25.6415 7.56576 25.6415 7.60065C25.6415 8.5254 25.6415 9.45363 25.6415 10.3784C25.6415 10.4237 25.6415 10.4656 25.638 10.511H24.2736L24.2701 10.5249ZM28.2587 5.41966C28.2657 5.12304 28.2168 4.82991 28.1156 4.55075C27.9795 4.1634 27.7527 3.86678 27.3409 3.7272C27.0967 3.64345 26.8629 3.64694 26.6221 3.70277C26.3778 3.7621 26.1894 3.90866 26.0358 4.10408C25.9311 4.24017 25.8474 4.39022 25.7881 4.55075C25.7357 4.7008 25.6973 4.86132 25.6834 5.02184C25.6485 5.37429 25.6485 5.72674 25.7357 6.0757C25.7846 6.27112 25.8648 6.45258 25.9765 6.62008C26.1161 6.83294 26.3045 6.98997 26.5453 7.07373C26.7861 7.16096 27.0338 7.16445 27.2816 7.09815C27.6166 7.00393 27.8644 6.79456 28.0214 6.48747C28.1017 6.33044 28.154 6.16643 28.1924 5.99195C28.2343 5.80002 28.2517 5.61158 28.2552 5.41966H28.2587Z" fill="#322D3C"/>
<path d="M0 5.57991C0.0104688 5.5485 0.0209382 5.5171 0.0279174 5.48918C0.0558342 5.4822 0.0628144 5.50314 0.0697936 5.5171C0.310576 6.08241 0.70839 6.50814 1.2423 6.80825C1.42725 6.91294 1.61917 7.00715 1.82506 7.06299C2.22985 7.17117 2.63814 7.23398 3.05689 7.18512C3.41981 7.14325 3.7583 7.03507 4.04794 6.81174C4.24684 6.6582 4.4283 6.48372 4.53997 6.24991C4.55043 6.22897 4.55742 6.20106 4.58533 6.1871C4.64466 6.20804 4.70049 6.24991 4.75632 6.28132C5.032 6.44533 5.31117 6.60934 5.58685 6.77684C5.66013 6.82221 5.66013 6.82221 5.62872 6.90247C5.50659 7.17815 5.32513 7.41195 5.10179 7.61086C4.6307 8.03659 4.06887 8.27737 3.44423 8.37159C3.02199 8.43789 2.60673 8.41346 2.18798 8.3332C1.70642 8.23898 1.19693 7.97726 0.854953 7.6632C0.652557 7.47825 0.495524 7.2619 0.35245 7.03158C0.209377 6.80127 0.143073 6.54304 0.0732813 6.28481C0.0418749 6.16616 0.0383874 6.04054 0.0209394 5.91491C0.0174498 5.89048 0.00697994 5.86606 0.00349034 5.84163C0.00349034 5.75439 0.00349034 5.66715 0.00349034 5.57642L0 5.57991Z" fill="#27B25E"/>
<path d="M10.2211 3.25952C10.2211 3.00827 10.2211 2.77098 10.2211 2.53369C10.2211 2.50926 10.2211 2.48134 10.2211 2.45692C10.2211 2.42202 10.2385 2.41155 10.2665 2.41155C10.2874 2.41155 10.3118 2.41155 10.3328 2.41155C10.7166 2.41155 11.1005 2.41155 11.4878 2.41155C11.5088 2.41155 11.5332 2.41155 11.5541 2.41155C11.5855 2.41155 11.603 2.42202 11.603 2.45692C11.603 2.48134 11.603 2.50926 11.603 2.53369C11.603 4.42505 11.603 6.3199 11.603 8.21127C11.603 8.33689 11.6204 8.3334 11.4878 8.3334C11.097 8.3334 10.7027 8.3334 10.3118 8.3334C10.2246 8.3334 10.2246 8.3334 10.2246 8.24267C10.2246 7.98095 10.2246 7.71574 10.2246 7.44355C10.1862 7.45751 10.1757 7.48543 10.1618 7.50637C9.97333 7.77158 9.73604 7.97397 9.4464 8.12403C9.06604 8.32293 8.66473 8.35783 8.24947 8.31246C8.15525 8.302 8.06103 8.29153 7.9703 8.27059C7.88655 8.24965 7.79931 8.22522 7.71556 8.19033C7.54457 8.12054 7.38056 8.02981 7.234 7.91465C6.9967 7.73319 6.80477 7.51335 6.6617 7.25163C6.53259 7.01782 6.4279 6.77704 6.3616 6.51532C6.21154 5.91162 6.1941 5.30443 6.2604 4.69026C6.28832 4.4425 6.34415 4.20521 6.42092 3.9714C6.52212 3.66432 6.67915 3.38515 6.88155 3.1339C7.08743 2.87567 7.35264 2.70119 7.65624 2.57556C8.00869 2.43249 8.3751 2.38712 8.75197 2.41504C8.91598 2.42551 9.07651 2.46739 9.23354 2.51973C9.40453 2.57905 9.55807 2.65582 9.70812 2.75353C9.8826 2.86869 10.0187 3.01176 10.1513 3.16879C10.1722 3.19322 10.1827 3.22463 10.2281 3.25255L10.2211 3.25952ZM7.6039 5.29745C7.6039 5.47193 7.61436 5.615 7.63181 5.76157C7.67019 6.07563 7.7679 6.36527 7.95983 6.62001C8.27739 7.04225 8.69265 7.1609 9.17422 7.06668C9.5162 7.00037 9.77093 6.78053 9.93843 6.46996C10.0361 6.28501 10.099 6.08959 10.1443 5.8837C10.2176 5.55219 10.2141 5.22068 10.1653 4.88568C10.1443 4.7426 10.099 4.60651 10.0536 4.47042C9.96635 4.2087 9.81281 3.99932 9.59994 3.82833C9.43942 3.7027 9.25099 3.64338 9.05208 3.61895C8.62286 3.5701 8.26692 3.69921 7.98775 4.03422C7.84119 4.2087 7.73999 4.41109 7.68416 4.62745C7.62832 4.85427 7.59692 5.08458 7.60738 5.29396L7.6039 5.29745Z" fill="#322D3C"/>
<path d="M34.2294 3.26991C34.2294 3.01168 34.2294 2.77438 34.2294 2.53709C34.2294 2.401 34.212 2.41496 34.3516 2.41496C34.7389 2.41496 35.1298 2.41496 35.5171 2.41496C35.6113 2.41496 35.6113 2.41496 35.6113 2.51266C35.6113 4.42147 35.6113 6.3268 35.6113 8.23561C35.6113 8.25305 35.6113 8.2705 35.6113 8.29144C35.6113 8.32285 35.5939 8.3368 35.566 8.3368C35.5485 8.3368 35.5311 8.3368 35.5101 8.3368C35.1193 8.3368 34.725 8.3368 34.3341 8.3368C34.2155 8.3368 34.2294 8.34378 34.2294 8.22863C34.2294 7.97389 34.2294 7.71566 34.2294 7.45394C34.1911 7.45743 34.1841 7.48883 34.1701 7.50977C33.9887 7.77498 33.7479 7.9704 33.4652 8.12045C33.2768 8.22165 33.0814 8.28795 32.8755 8.31936C32.701 8.34727 32.516 8.34029 32.3381 8.32285C32.1322 8.3054 31.9298 8.2705 31.7379 8.19373C31.5564 8.12045 31.3854 8.02972 31.2284 7.91107C30.9108 7.6668 30.6945 7.35274 30.5305 6.99331C30.4781 6.87815 30.4293 6.75951 30.3909 6.64086C30.3455 6.49779 30.3036 6.34424 30.2862 6.19419C30.2443 5.80336 30.2059 5.41252 30.2373 5.0182C30.2583 4.75997 30.2792 4.50174 30.3455 4.25397C30.3909 4.07949 30.4432 3.90501 30.5235 3.73751C30.6247 3.51767 30.7468 3.31178 30.9004 3.12683C31.1446 2.83371 31.4622 2.64527 31.8216 2.53011C32.1322 2.42891 32.4532 2.39751 32.7743 2.42891C33.1372 2.46381 33.4757 2.58944 33.7723 2.80579C33.9154 2.91048 34.0445 3.03261 34.1457 3.18267C34.1631 3.21058 34.1876 3.23152 34.2259 3.2734L34.2294 3.26991ZM31.6122 5.33575C31.6227 5.6533 31.6436 5.97086 31.7693 6.27096C31.86 6.48732 31.9821 6.67924 32.1566 6.8293C32.3974 7.03518 32.6835 7.11893 32.9976 7.09102C33.3082 7.06659 33.5734 6.94096 33.7793 6.70367C33.9293 6.53617 34.0236 6.33726 34.0899 6.1244C34.1492 5.93945 34.1876 5.74752 34.198 5.5521C34.2259 5.10893 34.1736 4.6797 33.9712 4.27491C33.7618 3.85616 33.4199 3.63283 32.9557 3.6084C32.5544 3.58746 32.2229 3.741 31.9717 4.05856C31.7867 4.29585 31.689 4.57153 31.6402 4.86116C31.6157 5.01471 31.5983 5.17174 31.6088 5.33226L31.6122 5.33575Z" fill="#322D3C"/>
<path d="M48.6275 3.25254C48.6275 2.9978 48.6275 2.74655 48.6275 2.49879C48.6275 2.41504 48.6206 2.41504 48.7113 2.41504C49.1161 2.41504 49.5174 2.41504 49.9222 2.41504C49.999 2.41504 49.999 2.41504 49.999 2.4953C49.999 2.51275 49.999 2.5302 49.999 2.55113C49.999 4.43552 49.999 6.32339 49.999 8.20777C49.999 8.35783 50.0199 8.33689 49.8733 8.33689C49.493 8.33689 49.1126 8.33689 48.7287 8.33689C48.6206 8.33689 48.631 8.34387 48.631 8.23569C48.631 7.97746 48.631 7.71574 48.631 7.44355C48.5612 7.49938 48.5263 7.56918 48.481 7.62501C48.3135 7.83439 48.1076 7.99142 47.8738 8.11704C47.4795 8.3334 47.0607 8.3648 46.6245 8.31595C46.5373 8.30548 46.4465 8.29501 46.3698 8.27408C46.286 8.25314 46.1953 8.22871 46.115 8.19381C45.9475 8.11704 45.7835 8.0298 45.6335 7.91814C45.4555 7.78204 45.302 7.62152 45.1763 7.43657C45.11 7.33886 45.0332 7.24115 44.9879 7.13647C44.9216 6.98292 44.8483 6.83287 44.8064 6.66886C44.7646 6.49787 44.7157 6.32688 44.6808 6.15589C44.6599 6.06167 44.6599 5.96047 44.6494 5.86276C44.6145 5.51031 44.618 5.16135 44.6494 4.8089C44.6773 4.5088 44.7401 4.21567 44.8413 3.92952C44.9425 3.64338 45.0891 3.38515 45.2775 3.15134C45.4869 2.8966 45.7521 2.71165 46.0557 2.58952C46.4291 2.44296 46.8164 2.3941 47.2142 2.43249C47.3643 2.44645 47.5144 2.49181 47.6574 2.54066C47.818 2.59301 47.9575 2.67327 48.0971 2.76051C48.2856 2.87916 48.4321 3.03968 48.5682 3.21067C48.5787 3.22463 48.5926 3.23858 48.6031 3.25254C48.6031 3.25254 48.6101 3.25254 48.6241 3.25603L48.6275 3.25254ZM46.0103 5.24859C46.0103 5.43354 46.0173 5.60453 46.0383 5.77203C46.0732 6.04422 46.1534 6.29896 46.3035 6.52928C46.5233 6.86777 46.8269 7.06667 47.2352 7.0911C47.3748 7.09808 47.5144 7.0911 47.6435 7.04923C47.8145 6.98641 47.9785 6.90964 48.1111 6.77006C48.1983 6.67933 48.2786 6.5886 48.3379 6.48042C48.4565 6.26407 48.5333 6.03375 48.5717 5.78948C48.645 5.30443 48.6136 4.83333 48.4182 4.3727C48.3309 4.16682 48.2053 3.99932 48.0413 3.85973C47.8319 3.67827 47.5737 3.60848 47.305 3.61197C46.9455 3.61546 46.635 3.74458 46.3977 4.03072C46.3209 4.12494 46.2476 4.22265 46.2023 4.33083C46.1395 4.47739 46.0766 4.62744 46.0592 4.78797C46.0557 4.83682 46.0208 4.88568 46.0208 4.93104C46.0278 5.0462 46.0068 5.15786 46.0138 5.25208L46.0103 5.24859Z" fill="#322D3C"/>
<path d="M38.7696 6.4207C38.8952 6.36138 39.0208 6.30554 39.1499 6.24622C39.3104 6.16945 39.4675 6.08221 39.6315 6.01591C39.6838 5.99497 39.7362 5.96356 39.785 5.93565C39.8548 5.90075 39.8723 5.90424 39.8758 5.97752C39.8792 6.06127 39.9107 6.13804 39.9351 6.2183C39.9979 6.44164 40.1375 6.61961 40.312 6.76617C40.5318 6.94763 40.7865 7.05232 41.0692 7.10117C41.3309 7.14654 41.5926 7.15701 41.8578 7.11862C42.0777 7.08721 42.2836 7.01742 42.4616 6.87784C42.5662 6.79758 42.65 6.69638 42.6744 6.56029C42.7058 6.37185 42.65 6.2183 42.4616 6.11013C42.3499 6.04731 42.2312 6.00195 42.1056 5.97054C41.7532 5.87632 41.3902 5.82398 41.0308 5.76117C40.7586 5.7158 40.4899 5.65299 40.2247 5.57273C39.9246 5.48549 39.6664 5.32846 39.4221 5.14351C39.3384 5.0772 39.2895 4.9795 39.2302 4.89226C39.0452 4.62007 39.0034 4.30949 39.0173 3.99194C39.0243 3.85934 39.0383 3.73022 39.0906 3.60459C39.1883 3.37428 39.3244 3.17537 39.5128 3.00787C39.6385 2.8997 39.7711 2.80548 39.9176 2.73219C40.0747 2.65193 40.2387 2.58563 40.4132 2.54027C40.8633 2.42162 41.317 2.38672 41.7811 2.41115C42.0288 2.42511 42.2731 2.4635 42.5104 2.53329C42.7337 2.5961 42.9501 2.67636 43.1525 2.79501C43.4212 2.95204 43.648 3.15095 43.812 3.41616C43.9167 3.58366 43.976 3.7721 43.99 3.971C43.99 4.01288 43.9865 4.04079 43.9411 4.05824C43.6131 4.19783 43.2851 4.33741 42.9501 4.48397C42.9187 4.39673 42.9082 4.306 42.8663 4.22574C42.7582 4.01637 42.5942 3.86631 42.3813 3.77558C42.2138 3.7023 42.0393 3.64647 41.8578 3.61855C41.5961 3.58017 41.3344 3.57668 41.0727 3.61855C40.9366 3.64298 40.8075 3.68137 40.6819 3.73371C40.5702 3.78256 40.4725 3.84887 40.4201 3.96751C40.3608 4.10012 40.3852 4.22225 40.5004 4.31298C40.6225 4.41069 40.7551 4.4735 40.9122 4.5084C41.0308 4.53283 41.1495 4.55028 41.2646 4.59564C41.3484 4.63054 41.4426 4.64798 41.5368 4.65496C41.6799 4.66194 41.8125 4.70382 41.9521 4.72825C42.1335 4.76314 42.315 4.80502 42.493 4.86085C42.7931 4.95507 43.0967 5.05278 43.3619 5.23075C43.5852 5.3808 43.7701 5.56575 43.8818 5.81002C44.0319 6.14502 44.0598 6.49398 43.9621 6.84643C43.8225 7.35242 43.5049 7.71534 43.0408 7.9631C42.7407 8.12362 42.4301 8.22831 42.1021 8.28066C41.6555 8.35045 41.2053 8.36092 40.7551 8.29461C40.5597 8.2667 40.3748 8.21784 40.1898 8.15852C40.0502 8.11316 39.9141 8.05732 39.7885 7.97008C39.642 7.86888 39.4954 7.77467 39.3593 7.65602C39.2476 7.55831 39.1534 7.44315 39.0697 7.32102C38.9894 7.20237 38.9091 7.08024 38.8638 6.93716C38.8114 6.77315 38.7661 6.60565 38.7626 6.43117H38.7696V6.42419V6.4207Z" fill="#322D3C"/>
<path d="M16.0382 6.52948C16.0836 6.38292 16.0208 6.26776 15.9196 6.17005C15.8428 6.09328 15.7451 6.05489 15.6439 6.02C15.4275 5.94323 15.2007 5.90833 14.9774 5.86297C14.8204 5.83156 14.6633 5.80713 14.5063 5.7827C14.276 5.74781 14.0492 5.69198 13.8223 5.64312C13.4978 5.57333 13.2047 5.43375 12.9325 5.25229C12.6882 5.08827 12.5312 4.86145 12.4509 4.57879C12.3951 4.39036 12.3951 4.19843 12.3881 4.0065C12.3811 3.83202 12.4335 3.67499 12.4963 3.52493C12.5521 3.39233 12.6394 3.27019 12.7406 3.15853C12.9604 2.91774 13.2256 2.75024 13.5292 2.63509C14.1469 2.40477 14.782 2.36639 15.4275 2.44316C15.6858 2.47457 15.9405 2.53389 16.1813 2.62811C16.4256 2.72582 16.6664 2.84446 16.8618 3.0329C16.9665 3.1341 17.0711 3.23879 17.134 3.37488C17.2107 3.54238 17.2945 3.70988 17.298 3.89832C17.298 3.94718 17.2875 3.97858 17.2421 3.99952C16.9665 4.14608 16.6908 4.29265 16.4151 4.43921C16.3279 4.48457 16.3174 4.47062 16.293 4.37291C16.2581 4.23332 16.1918 4.11119 16.0801 4.00301C15.9824 3.90879 15.8812 3.83551 15.7625 3.78316C15.6195 3.72035 15.4729 3.66103 15.3124 3.64009C15.2182 3.62962 15.1205 3.6052 15.0228 3.59473C14.7017 3.56681 14.3876 3.59473 14.091 3.71686C13.9445 3.77619 13.8084 3.8704 13.7735 4.04837C13.756 4.14608 13.7805 4.22983 13.8537 4.29614C13.927 4.36244 14.0143 4.40082 14.105 4.4427C14.276 4.51947 14.4574 4.54041 14.6354 4.58926C14.8518 4.64859 15.0786 4.67301 15.2984 4.72187C15.4066 4.74629 15.5183 4.75327 15.623 4.80213C15.6823 4.83004 15.7556 4.83353 15.8219 4.844C15.9929 4.87192 16.1464 4.9452 16.3034 5.00452C16.5303 5.08827 16.7466 5.20343 16.9316 5.36744C17.2247 5.62567 17.3713 5.9537 17.3957 6.34104C17.4061 6.51901 17.3957 6.69349 17.3433 6.86099C17.2596 7.13667 17.127 7.38443 16.9141 7.59381C16.6629 7.84157 16.3697 8.00558 16.0487 8.13121C15.8777 8.19751 15.6928 8.21496 15.5218 8.28126C15.1344 8.31615 14.7506 8.35454 14.3597 8.31615C14.1922 8.29871 14.0247 8.28475 13.8607 8.23589C13.7072 8.19053 13.5536 8.14516 13.4071 8.08235C13.2116 7.9986 13.0372 7.88693 12.8732 7.75782C12.6079 7.55193 12.4021 7.2937 12.2695 6.98313C12.2032 6.82261 12.1648 6.6551 12.1438 6.48411C12.1403 6.44573 12.1543 6.42828 12.1857 6.40734C12.2276 6.37943 12.2764 6.36547 12.3218 6.34453C12.6149 6.20146 12.9115 6.06187 13.2047 5.92229C13.2151 5.9188 13.2256 5.91531 13.2396 5.91182C13.2745 5.97463 13.264 6.04442 13.278 6.11073C13.3512 6.40036 13.5083 6.63068 13.7456 6.80865C13.9759 6.98313 14.2446 7.07037 14.5272 7.11224C14.7994 7.15412 15.0751 7.15412 15.3473 7.09479C15.5043 7.0599 15.6509 7.00406 15.787 6.92031C15.8568 6.87844 15.9126 6.82261 15.9615 6.75979C16.0103 6.70047 16.0382 6.63766 16.0347 6.5574C16.0452 6.5574 16.0592 6.5574 16.0627 6.55042C16.0661 6.53646 16.0557 6.53297 16.0452 6.53297L16.0382 6.52948Z" fill="#322D3C"/>
<path d="M2.74287 6.16287C2.59281 6.16984 2.38693 6.13844 2.18453 6.12448C2.12521 6.12099 2.05891 6.10005 1.99609 6.08609C1.83906 6.05469 1.68552 6.00583 1.53547 5.95349C1.4238 5.9151 1.30515 5.8837 1.20744 5.82088C1.02947 5.7162 0.844525 5.615 0.687493 5.4789C0.62817 5.42656 0.554888 5.39166 0.499055 5.33234C0.373429 5.19974 0.275722 5.04619 0.171034 4.89963C0.153586 4.8752 0.157074 4.85078 0.160563 4.82635C0.167542 4.72515 0.181503 4.62395 0.20593 4.52624C0.254784 4.34478 0.296659 4.15984 0.376919 3.98885C0.492076 3.73759 0.617701 3.49681 0.79567 3.28046C0.980619 3.05014 1.20395 2.86519 1.4552 2.71514C1.72041 2.55811 2.01005 2.44993 2.31365 2.39061C2.55792 2.34524 2.80568 2.31733 3.05344 2.32431C3.30469 2.3278 3.55246 2.36618 3.79673 2.43597C4.18407 2.54764 4.52954 2.73608 4.8122 3.02921C4.99715 3.21764 5.15069 3.43051 5.2484 3.67478C5.38799 4.03072 5.44382 4.39015 5.3496 4.77052C5.29027 5.0113 5.18559 5.22765 5.01809 5.4126C4.78079 5.67083 4.48418 5.84182 4.15267 5.95C3.71298 6.09656 3.26282 6.15589 2.74636 6.15938L2.74287 6.16287ZM2.74287 5.05317C2.83011 5.05317 2.91735 5.06015 3.00459 5.05317C3.22094 5.03572 3.4373 4.99734 3.6362 4.90661C3.91537 4.78098 4.03751 4.49833 3.99563 4.26103C3.95376 4.01676 3.80021 3.84926 3.58735 3.74108C3.40938 3.65035 3.21745 3.6015 3.01505 3.59801C2.6312 3.59103 2.27177 3.6678 1.95422 3.89114C1.70646 4.06562 1.53547 4.29593 1.42729 4.5751C1.38192 4.69374 1.39239 4.71817 1.50057 4.78796C1.72739 4.93453 1.98213 4.98687 2.24036 5.02875C2.40437 5.05317 2.57537 5.07062 2.74287 5.05317Z" fill="#322D3C"/>
<path d="M36.5675 2.42542C36.6024 2.40797 36.6373 2.41495 36.6687 2.41495C37.063 2.41495 37.4608 2.41495 37.8552 2.41495C37.8726 2.41495 37.8901 2.41495 37.911 2.41495C37.9459 2.41495 37.9668 2.42891 37.9633 2.4673C37.9633 2.48823 37.9633 2.51266 37.9633 2.5336C37.9633 4.42496 37.9633 6.31981 37.9633 8.21118C37.9633 8.23211 37.9633 8.25654 37.9633 8.27748C37.9633 8.31935 37.9494 8.34029 37.9075 8.3368C37.8901 8.3368 37.8726 8.3368 37.8517 8.3368C37.4643 8.3368 37.077 8.3368 36.6861 8.3368C36.5675 8.3368 36.5815 8.3368 36.5815 8.22862C36.5815 6.34075 36.5815 4.45288 36.5815 2.56152C36.5815 2.51964 36.5919 2.47428 36.5675 2.42891V2.42542Z" fill="#322D3C"/>
<path d="M37.262 1.76233C36.8153 1.7728 36.3686 1.37847 36.3791 0.87946C36.3861 0.436281 36.742 -0.00689783 37.2689 8.13643e-05C37.7714 0.00706056 38.1483 0.401385 38.1448 0.900398C38.1413 1.35754 37.7435 1.77629 37.2654 1.76233H37.262Z" fill="#27B25E"/>
<path d="M16.0382 6.52888C16.0382 6.52888 16.0591 6.53237 16.0557 6.54633C16.0522 6.5568 16.0382 6.5568 16.0277 6.55331C16.0277 6.54284 16.0208 6.53237 16.0347 6.52539L16.0382 6.52888Z" fill="#27B25E"/>
<path d="M38.7695 6.4209V6.42439H38.766L38.7695 6.4209Z" fill="#27B25E"/>
<path d="M28.2588 5.41942C28.2553 5.61135 28.2344 5.79978 28.196 5.99171C28.1576 6.16619 28.1053 6.33369 28.025 6.48724C27.868 6.79432 27.6202 7.0037 27.2852 7.09792C27.0374 7.16771 26.7897 7.16073 26.5489 7.07349C26.3081 6.98625 26.1197 6.83271 25.9801 6.61984C25.8684 6.45234 25.7882 6.27088 25.7393 6.07546C25.6521 5.7265 25.6521 5.37754 25.687 5.0216C25.7044 4.86108 25.7393 4.70056 25.7917 4.55051C25.8475 4.38999 25.9312 4.23993 26.0394 4.10384C26.193 3.90493 26.3814 3.75837 26.6257 3.70254C26.863 3.6467 27.1003 3.64321 27.3445 3.72696C27.7563 3.86655 27.9831 4.16316 28.1192 4.55051C28.2169 4.82968 28.2658 5.1228 28.2623 5.41942H28.2588Z" fill="white"/>
<path d="M7.60383 5.2973C7.59337 5.08792 7.62477 4.85761 7.6806 4.63079C7.73643 4.41443 7.83764 4.21203 7.9842 4.03755C8.25988 3.70255 8.61931 3.57344 9.04853 3.62229C9.25093 3.64672 9.43936 3.70255 9.59639 3.83167C9.80926 3.99917 9.96629 4.21203 10.05 4.47375C10.0954 4.60985 10.1408 4.74594 10.1617 4.88902C10.2106 5.22402 10.2141 5.55204 10.1408 5.88704C10.0954 6.09293 10.0326 6.28835 9.93488 6.47329C9.77087 6.78387 9.51264 7.00371 9.17066 7.07002C8.69259 7.16423 8.27384 7.04559 7.95628 6.62335C7.76435 6.36861 7.66664 6.07897 7.62826 5.76491C7.61081 5.61834 7.60034 5.47527 7.60034 5.30079L7.60383 5.2973Z" fill="white"/>
<path d="M31.6122 5.33219C31.6018 5.17516 31.6157 5.01464 31.6437 4.8611C31.6925 4.57146 31.7902 4.29578 31.9752 4.05849C32.2264 3.74094 32.5614 3.58739 32.9592 3.60833C33.4199 3.63276 33.7618 3.85609 33.9747 4.27485C34.1771 4.67964 34.2294 5.10886 34.2015 5.55204C34.1876 5.74746 34.1492 5.93938 34.0933 6.12433C34.027 6.33371 33.9328 6.53611 33.7828 6.70361C33.5734 6.9409 33.3117 7.06652 33.0011 7.09095C32.687 7.11538 32.3974 7.03163 32.1601 6.82923C31.9856 6.67918 31.86 6.48725 31.7728 6.2709C31.6471 5.97079 31.6297 5.65324 31.6157 5.33568L31.6122 5.33219Z" fill="white"/>
<path d="M46.0103 5.24863C46.0033 5.15441 46.0243 5.04274 46.0173 4.92759C46.0173 4.88222 46.0487 4.83337 46.0557 4.78451C46.0731 4.6205 46.136 4.47045 46.1988 4.32737C46.2441 4.22269 46.3174 4.12149 46.3942 4.02727C46.628 3.74112 46.9386 3.6155 47.3015 3.60852C47.5737 3.60503 47.8284 3.67831 48.0378 3.85628C48.2018 3.99586 48.3274 4.16336 48.4147 4.36925C48.6066 4.82988 48.6415 5.30097 48.5682 5.78603C48.5298 6.0303 48.453 6.26061 48.3344 6.47697C48.2751 6.58514 48.1948 6.67587 48.1076 6.7666C47.975 6.90619 47.8145 6.98645 47.64 7.04577C47.5109 7.09114 47.3713 7.09812 47.2317 7.08765C46.8234 7.06322 46.5163 6.86431 46.3 6.52582C46.1499 6.29551 46.0696 6.04077 46.0348 5.76858C46.0138 5.60108 46.0068 5.43358 46.0068 5.24514L46.0103 5.24863Z" fill="white"/>
<path d="M2.74277 5.04984C2.57527 5.06729 2.40427 5.04984 2.24026 5.02541C1.98203 4.98703 1.72729 4.9312 1.50047 4.78463C1.39229 4.71484 1.38182 4.69041 1.42719 4.57177C1.53537 4.2926 1.70635 4.06229 1.95412 3.88781C2.27167 3.66098 2.6311 3.58421 3.01495 3.59468C3.21735 3.59817 3.40928 3.64702 3.58725 3.73775C3.80011 3.84593 3.95366 4.01343 3.99553 4.2577C4.03741 4.49849 3.91527 4.78114 3.6361 4.90328C3.43371 4.99401 3.22084 5.03239 3.00449 5.04984C2.91725 5.05682 2.83001 5.04984 2.74277 5.04984Z" fill="white"/>
</svg>
